<svg width="22" height="22" viewBox="0 0 24 24" fill="none" xmlns="http://www.w3.org/2000/svg" data-testid="icon-whatsapp">
                              <path d="M19.3974 4.66019C17.4701 2.69922 14.8059 1.63464 12.085 1.63464C6.30314 1.63464 1.6549 6.28502 1.71154 11.9439C1.71154 13.7368 2.22171 15.4738 3.07204 17.0426L1.59818 22.3653L7.09666 20.9646C8.62716 21.8051 10.3277 22.1973 12.0283 22.1973C17.7535 22.1973 22.4018 17.5468 22.4018 11.888C22.4018 9.14254 21.3246 6.56517 19.3974 4.66019ZM12.085 20.4604C10.5545 20.4604 9.02397 20.0683 7.72019 19.2839L7.3801 19.1157L4.09238 19.9561L4.94262 16.7626L4.7159 16.4263C2.22171 12.4483 3.41212 7.18148 7.49346 4.71617C11.5748 2.25095 16.8466 3.42758 19.3408 7.46165C21.8349 11.4957 20.6445 16.7064 16.5632 19.1717C15.2594 20.0121 13.6722 20.4604 12.085 20.4604ZM17.0733 14.2413L16.4498 13.9611C16.4498 13.9611 15.5429 13.5689 14.976 13.2887C14.9193 13.2887 14.8626 13.2327 14.8059 13.2327C14.6358 13.2327 14.5225 13.2887 14.4091 13.3448C14.4091 13.3448 14.3525 13.4008 13.5588 14.2972C13.5021 14.4093 13.3888 14.4654 13.2754 14.4654H13.2187C13.162 14.4654 13.0487 14.4093 12.992 14.3533L12.7085 14.2413C12.085 13.9611 11.5182 13.6249 11.0646 13.1767C10.9513 13.0646 10.7812 12.9526 10.6678 12.8405C10.271 12.4483 9.87423 12.0001 9.59087 11.4958L9.53414 11.3837C9.4775 11.3277 9.47749 11.2717 9.42077 11.1596C9.42077 11.0476 9.42077 10.9356 9.47749 10.8795C9.47749 10.8795 9.70423 10.5993 9.87423 10.4313C9.98767 10.3192 10.0443 10.1511 10.1577 10.0391C10.271 9.87097 10.3278 9.64687 10.271 9.47876C10.2144 9.1986 9.53413 7.68583 9.36413 7.34968C9.25069 7.18157 9.13741 7.12558 8.96732 7.06952H8.3438C8.23036 7.06952 8.11707 7.12558 8.00363 7.12558L7.94691 7.18157C7.83355 7.23763 7.72019 7.34968 7.60683 7.40566C7.49347 7.51779 7.43675 7.62976 7.32338 7.74189C6.92658 8.24615 6.69985 8.86246 6.69985 9.47876C6.69985 9.92696 6.81322 10.3752 6.9833 10.7674L7.04002 10.9356C7.55018 12.0001 8.23035 12.9526 9.13741 13.793L9.36413 14.0171C9.53413 14.1852 9.70423 14.2972 9.81759 14.4653C11.008 15.4739 12.3684 16.2022 13.8989 16.5944C14.069 16.6504 14.2957 16.6504 14.4658 16.7065H15.0326C15.3161 16.7065 15.6562 16.5944 15.883 16.4824C16.053 16.3704 16.1663 16.3703 16.2797 16.2583L16.3931 16.1462C16.5065 16.0341 16.6199 15.9781 16.7332 15.8661C16.8466 15.754 16.9599 15.642 17.0167 15.5299C17.13 15.3058 17.1867 15.0256 17.2434 14.7455V14.3533C17.2434 14.3533 17.1867 14.2972 17.0733 14.2413Z" fill="currentColor"></path>
                           </svg>