<svg width="134" height="20" viewBox="0 0 134 20" fill="none" xmlns="http://www.w3.org/2000/svg">
<path d="M5.08276 18.9668C4.59284 19.2181 4.03691 18.7777 4.13591 18.2154L5.18938 12.2119L0.717868 7.95238C0.300291 7.55384 0.517329 6.8253 1.07706 6.74661L7.29377 5.86322L10.0658 0.371251C10.3158 -0.12375 10.9923 -0.12375 11.2423 0.371251L14.0144 5.86322L20.2311 6.74661C20.7908 6.8253 21.0078 7.55384 20.589 7.95238L16.1187 12.2119L17.1722 18.2154C17.2712 18.7777 16.7153 19.2181 16.2254 18.9668L10.6522 16.1034L5.08149 18.9668H5.08276Z" fill="#F48700"/>
<path d="M33.2557 18.9668C32.7658 19.2181 32.2099 18.7777 32.3089 18.2154L33.3623 12.2119L28.8908 7.95238C28.4733 7.55384 28.6903 6.8253 29.25 6.74661L35.4667 5.86322L38.2387 0.371251C38.4888 -0.12375 39.1653 -0.12375 39.4153 0.371251L42.1873 5.86322L48.404 6.74661C48.9638 6.8253 49.1808 7.55384 48.762 7.95238L44.2917 12.2119L45.3452 18.2154C45.4442 18.7777 44.8883 19.2181 44.3983 18.9668L38.8251 16.1034L33.2545 18.9668H33.2557Z" fill="#F48700"/>
<path d="M61.4289 18.9668C60.939 19.2181 60.383 18.7777 60.482 18.2154L61.5355 12.2119L57.064 7.95238C56.6464 7.55384 56.8635 6.8253 57.4232 6.74661L63.6399 5.86322L66.4119 0.371251C66.6619 -0.12375 67.3384 -0.12375 67.5885 0.371251L70.3605 5.86322L76.5772 6.74661C77.1369 6.8253 77.354 7.55384 76.9351 7.95238L72.4649 12.2119L73.5183 18.2154C73.6173 18.7777 73.0614 19.2181 72.5715 18.9668L66.9983 16.1034L61.4276 18.9668H61.4289Z" fill="#F48700"/>
<path d="M89.6018 18.9668C89.1119 19.2181 88.556 18.7777 88.655 18.2154L89.7084 12.2119L85.2369 7.95238C84.8193 7.55384 85.0364 6.8253 85.5961 6.74661L91.8128 5.86322L94.5848 0.371251C94.8349 -0.12375 95.5114 -0.12375 95.7614 0.371251L98.5334 5.86322L104.75 6.74661C105.31 6.8253 105.527 7.55384 105.108 7.95238L100.638 12.2119L101.691 18.2154C101.79 18.7777 101.234 19.2181 100.744 18.9668L95.1712 16.1034L89.6005 18.9668H89.6018Z" fill="#F48700"/>
<path d="M117.775 18.9668C117.285 19.2181 116.729 18.7777 116.828 18.2154L117.882 12.2119L113.41 7.95238C112.993 7.55384 113.21 6.8253 113.769 6.74661L119.986 5.86322L122.758 0.371251C123.008 -0.12375 123.685 -0.12375 123.935 0.371251L126.707 5.86322L132.923 6.74661C133.483 6.8253 133.7 7.55384 133.281 7.95238L128.811 12.2119L129.864 18.2154C129.963 18.7777 129.408 19.2181 128.918 18.9668L123.344 16.1034L117.774 18.9668H117.775Z" fill="#F48700"/>
</svg>
